# Blender v2.90.0 OBJ File: 'Star.blend'
# www.blender.org
mtllib Star.mtl
o Circle_Circle.001
v 0.000000 0.000000 -1.000000
v -0.239107 0.000000 -0.329103
v -0.951057 0.000000 -0.309017
v -0.386883 0.000000 0.125706
v -0.587785 0.000000 0.809017
v 0.000000 0.000000 0.406793
v 0.587785 0.000000 0.809017
v 0.386883 0.000000 0.125706
v 0.951056 0.000000 -0.309017
v 0.239107 0.000000 -0.329103
v 0.000000 0.183481 -1.000000
v -0.239107 0.183481 -0.329103
v -0.951057 0.183481 -0.309017
v -0.386883 0.183481 0.125706
v -0.587785 0.183481 0.809017
v 0.000000 0.183481 0.406793
v 0.587785 0.183481 0.809017
v 0.386883 0.183481 0.125706
v 0.951056 0.183481 -0.309017
v 0.239107 0.183481 -0.329103
vt 0.000000 0.000000
vt 0.000000 0.000000
vt 0.000000 0.000000
vt 0.000000 0.000000
vt 0.000000 0.000000
vt 0.000000 0.000000
vt 0.000000 0.000000
vt 0.000000 0.000000
vt 0.000000 0.000000
vt 0.000000 0.000000
vt 0.000000 0.000000
vt 0.000000 0.000000
vt 0.000000 0.000000
vt 0.000000 0.000000
vt 0.000000 0.000000
vt 0.000000 0.000000
vt 0.000000 0.000000
vt 0.000000 0.000000
vt 0.000000 0.000000
vt 0.000000 0.000000
vn 0.0000 -1.0000 0.0000
vn 0.0000 1.0000 -0.0000
vn -0.0282 0.0000 -0.9996
vn 0.0282 0.0000 -0.9996
vn -0.5647 0.0000 0.8253
vn -0.6104 0.0000 0.7921
vn 0.9420 0.0000 -0.3357
vn 0.9594 0.0000 -0.2821
vn -0.9594 0.0000 -0.2821
vn -0.9420 0.0000 -0.3357
vn 0.6104 0.0000 0.7921
vn 0.5647 0.0000 0.8253
usemtl Material.001
s off
f 2/1/1 1/2/1 10/3/1 9/4/1 8/5/1 7/6/1 6/7/1 5/8/1 4/9/1 3/10/1
f 12/11/2 13/12/2 14/13/2 15/14/2 16/15/2 17/16/2 18/17/2 19/18/2 20/19/2 11/20/2
f 2/1/3 3/10/3 13/12/3 12/11/3
f 9/4/4 10/3/4 20/19/4 19/18/4
f 6/7/5 7/6/5 17/16/5 16/15/5
f 3/10/6 4/9/6 14/13/6 13/12/6
f 10/3/7 1/2/7 11/20/7 20/19/7
f 7/6/8 8/5/8 18/17/8 17/16/8
f 4/9/9 5/8/9 15/14/9 14/13/9
f 1/2/10 2/1/10 12/11/10 11/20/10
f 8/5/11 9/4/11 19/18/11 18/17/11
f 5/8/12 6/7/12 16/15/12 15/14/12
